<svg width="60" height="72" viewBox="0 0 60 72" fill="none" xmlns="http://www.w3.org/2000/svg">
<path d="M34.1949 2.0114C33.5629 0.115356 31.2646 -0.608589 29.6559 0.575003L8.77638 15.9042C8.77638 15.9042 7.52384 16.8695 7.19059 17.1453C2.07702 21.3051 -0.956655 25.982 0.272901 28.0389C0.721057 28.7859 1.67483 29.0846 2.97333 29.0042C4.07648 26.5336 6.83437 23.3505 10.546 20.5122C10.7414 20.3628 29.6444 6.49296 34.5051 2.9192L34.1949 2.0114Z" fill="url(#paint0_linear_415_3627)"/>
<path d="M57.165 36.4158L44.5017 45.7122L44.4902 45.7007C42.0081 47.4359 38.8136 46.8039 37.2968 44.2528C35.7799 41.7018 36.5039 38.197 38.917 36.3354L38.9055 36.3239L53.1086 25.9014C54.3152 25.0166 54.9127 23.5342 54.6484 22.0634L51.4194 3.49362C51.1092 1.73547 49.0637 0.908101 47.6273 1.96529L29.0691 15.5938L14.82 26.0508C8.77564 30.4864 2.80023 32.302 1.49023 30.0842L22.9443 66.0861C24.8518 68.6256 27.5867 70.4527 30.8617 71.0618C34.2861 71.7053 37.6989 70.9124 40.5832 69.0968L58.4635 55.9738C59.6126 55.1235 60.1872 53.6986 59.9459 52.2852L57.165 36.4158Z" fill="url(#paint1_linear_415_3627)"/>
<defs>
<linearGradient id="paint0_linear_415_3627" x1="-0.00288714" y1="14.5109" x2="34.501" y2="14.5109" gradientUnits="userSpaceOnUse">
<stop stop-color="#9A08BE"/>
<stop offset="0.291667" stop-color="#B114AE"/>
<stop offset="0.526042" stop-color="#E32693"/>
<stop offset="0.755208" stop-color="#F72D88"/>
<stop offset="0.953125" stop-color="#FF4B9C"/>
</linearGradient>
<linearGradient id="paint1_linear_415_3627" x1="13.2825" y1="52.8207" x2="59.4419" y2="26.2358" gradientUnits="userSpaceOnUse">
<stop stop-color="#9F00B5"/>
<stop offset="0.053328" stop-color="#8E00A5"/>
<stop offset="0.0971514" stop-color="#85009D"/>
<stop offset="0.269673" stop-color="#C81CA2"/>
<stop offset="0.625" stop-color="#FC4095"/>
<stop offset="1" stop-color="#FF3B93"/>
</linearGradient>
</defs>
</svg>
